<svg viewBox="0 0 24 24" xmlns="http://www.w3.org/2000/svg"><path d="M23.193 7.88c0-5.207-3.413-6.733-3.413-6.733C18.057.357 15.108.027 12.043 0h-.075c-3.066.027-6.012.357-7.733 1.147 0 0-3.414 1.526-3.414 6.733 0 1.193-.023 2.619.015 4.13.124 5.092.934 10.11 5.641 11.355 2.17.574 4.034.695 5.535.612 2.722-.151 4.25-.972 4.25-.972l-.09-1.975s-1.945.613-4.129.539c-2.165-.074-4.449-.232-4.799-2.892a5.412 5.412 0 0 1-.048-.745s2.125.52 4.82.643c1.65.076 3.196-.097 4.768-.285 3.013-.359 5.637-2.215 5.967-3.91.52-2.668.477-6.508.477-6.508zm-4.024 6.693h-2.498V8.49c0-1.288-.542-1.943-1.625-1.943-1.198 0-1.798.776-1.798 2.31v3.346H10.77V8.857c0-1.534-.6-2.31-1.798-2.31-1.083 0-1.625.655-1.625 1.943v6.084H4.85V8.305c0-1.287.328-2.31.985-3.07.677-.76 1.564-1.15 2.665-1.15 1.275 0 2.24.49 2.879 1.47L12 6.547l.622-.992c.639-.98 1.604-1.47 2.879-1.47 1.1 0 1.987.39 2.665 1.15.657.76.985 1.783.985 3.07v6.268z" fill-rule="nonzero"/></svg>
